<?xml version="1.0" standalone="no"?>
<!DOCTYPE svg PUBLIC "-//W3C//DTD SVG 20010904//EN"
 "http://www.w3.org/TR/2001/REC-SVG-20010904/DTD/svg10.dtd">
<svg version="1.0" xmlns="http://www.w3.org/2000/svg"
 width="1920.000000pt" height="1920.000000pt" viewBox="0 0 1920.000000 1920.000000"
 preserveAspectRatio="xMidYMid meet">

<g transform="translate(0.000000,1920.000000) scale(0.100000,-0.100000)"
fill="#000000" stroke="none">
<path d="M8474 11057 c-325 -260 -808 -644 -1073 -855 -264 -211 -492 -398
-506 -416 -139 -182 -63 -463 153 -564 l57 -27 307 -3 307 -3 3 -867 c3 -852
4 -868 24 -929 75 -217 246 -373 459 -418 105 -22 2685 -22 2790 0 213 45 384
201 459 418 20 61 21 77 24 929 l3 867 307 3 307 3 57 27 c115 54 194 158 218
286 23 126 -22 247 -123 335 -34 29 -367 296 -741 593 -373 296 -836 664
-1028 817 -192 152 -350 277 -352 277 -2 0 -18 -25 -36 -56 -63 -112 -167
-200 -297 -251 -61 -24 -81 -27 -193 -27 -112 0 -132 3 -193 27 -130 51 -234
139 -297 251 -18 31 -35 56 -38 55 -4 0 -273 -213 -598 -472z m1221 -365 c43
-21 84 -61 108 -107 l22 -40 3 -1579 c1 -1045 -1 -1598 -8 -1635 -13 -71 -48
-123 -106 -157 -135 -79 -302 -4 -334 149 -7 36 -10 536 -8 1637 3 1524 4
1586 22 1620 63 118 191 166 301 112z m-719 -688 c35 -21 56 -44 76 -83 l28
-53 0 -939 c0 -766 -2 -946 -13 -972 -81 -193 -353 -186 -423 10 -18 52 -20
1854 -2 1914 15 52 72 117 122 141 61 28 150 21 212 -18z m1452 21 c20 -9 54
-32 74 -52 72 -70 69 -22 66 -1064 l-3 -936 -30 -49 c-83 -133 -265 -147 -364
-27 -18 21 -36 54 -42 73 -6 23 -9 357 -7 976 l3 941 30 48 c55 90 177 129
273 90z"/>
<path d="M5482 6360 c-12 -5 -27 -21 -32 -36 -6 -16 -9 -166 -8 -392 l3 -367
78 -3 77 -3 0 256 c0 147 4 255 9 253 5 -1 91 -111 191 -243 100 -132 191
-248 202 -257 24 -21 95 -24 119 -5 9 7 101 122 204 257 103 135 191 247 196
248 5 2 9 -106 9 -252 l0 -256 80 0 80 0 0 379 c0 432 3 419 -80 428 -35 4
-51 0 -70 -15 -14 -11 -124 -151 -245 -311 -121 -160 -224 -289 -229 -288 -6
2 -108 134 -228 293 -120 159 -228 297 -239 307 -23 18 -79 22 -117 7z"/>
<path d="M7295 6361 c-34 -15 -68 -60 -162 -211 -50 -80 -150 -239 -223 -355
-73 -115 -134 -216 -137 -222 -4 -10 18 -13 89 -13 109 0 99 -6 172 113 l47
77 268 0 c307 0 269 12 345 -112 l48 -78 99 0 c54 0 99 2 99 4 0 15 -459 737
-486 765 -28 29 -41 35 -86 38 -29 1 -62 -1 -73 -6z m154 -324 c50 -82 91
-151 91 -153 0 -2 -83 -4 -185 -4 -102 0 -185 3 -185 8 0 8 11 27 112 190 39
62 71 112 73 110 2 -2 44 -70 94 -151z"/>
<path d="M12540 6363 c-8 -3 -23 -12 -32 -21 -17 -14 -18 -46 -18 -399 l0
-384 78 3 77 3 3 258 2 259 186 -244 c101 -133 196 -253 210 -265 27 -25 81
-31 114 -13 11 6 106 123 212 262 l193 252 5 -255 5 -254 78 -3 77 -3 0 383
c0 211 -4 388 -8 394 -26 39 -111 46 -145 12 -12 -13 -120 -153 -241 -311
-120 -158 -222 -287 -226 -285 -5 2 -108 136 -230 298 -122 162 -231 300 -243
307 -23 13 -71 16 -97 6z"/>
<path d="M4595 6335 c-82 -29 -109 -93 -103 -246 3 -112 17 -140 84 -174 35
-18 63 -20 301 -23 305 -4 296 -1 291 -98 -3 -51 -6 -60 -28 -71 -19 -9 -107
-13 -340 -13 l-315 0 3 -76 4 -76 346 4 347 3 49 25 c83 42 91 60 91 210 0
146 -8 166 -81 204 -36 19 -61 21 -300 26 -201 4 -265 8 -277 19 -18 14 -24
105 -9 129 14 22 73 32 184 32 l108 0 0 70 0 70 -157 0 c-110 -1 -170 -5 -198
-15z"/>
<path d="M8022 5958 l3 -393 83 -3 82 -3 0 142 c0 130 1 141 18 136 9 -2 116
-66 237 -141 l219 -136 138 0 c76 0 138 3 138 8 0 4 -98 63 -217 132 l-218
125 125 6 c158 8 227 27 269 74 40 46 46 70 46 195 0 120 -17 168 -74 207 -56
38 -115 43 -492 43 l-359 0 2 -392z m677 243 c60 -12 71 -30 71 -118 0 -59 -4
-77 -19 -92 -26 -26 -103 -33 -351 -29 l-205 3 -3 109 c-1 61 0 116 2 123 4
10 54 13 233 13 125 -1 248 -5 272 -9z"/>
<path d="M9010 6275 l0 -75 165 0 165 0 0 -320 0 -320 85 0 85 0 0 320 0 320
168 2 167 3 0 70 0 70 -417 3 -418 2 0 -75z"/>
<path d="M10400 5955 l0 -395 85 0 85 0 0 160 0 160 290 0 290 0 0 -160 0
-160 85 0 85 0 0 395 0 395 -85 0 -85 0 0 -160 0 -160 -290 0 -290 0 0 160 0
160 -85 0 -85 0 0 -395z"/>
<path d="M11616 6339 c-59 -14 -99 -43 -126 -91 -25 -42 -25 -46 -25 -288 0
-229 1 -248 21 -285 23 -44 68 -79 123 -95 55 -16 402 -24 511 -11 125 14 175
40 210 106 24 47 25 58 28 246 5 280 -13 345 -108 399 -45 25 -47 25 -320 27
-151 1 -293 -3 -314 -8z m517 -150 c41 -19 47 -48 47 -237 0 -200 -4 -214 -68
-232 -48 -13 -366 -13 -414 1 -63 17 -70 41 -66 251 l3 180 28 24 c28 24 31
24 237 24 132 0 218 -4 233 -11z"/>
<path d="M14017 6336 c-133 -36 -163 -119 -155 -431 5 -193 18 -242 79 -288
60 -45 95 -49 441 -54 l326 -5 4 75 3 76 -312 3 -311 3 -26 24 c-23 21 -26 33
-26 88 l0 63 335 0 335 0 0 70 0 70 -335 0 -335 0 0 59 c0 101 34 120 223 121
l97 0 0 70 0 70 -147 -1 c-88 0 -168 -6 -196 -13z"/>
</g>
</svg>
