<svg id="svg" version="1.1" xmlns="http://www.w3.org/2000/svg" xmlns:xlink="http://www.w3.org/1999/xlink" width="400" height="400" viewBox="0, 0, 400,400"><g id="svgg"><path id="path0" d="M197.800 88.165 C 193.506 91.089,173.002 104.609,172.630 104.761 C 172.414 104.849,172.048 105.085,171.818 105.285 C 171.295 105.741,149.237 120.427,145.813 122.600 C 144.426 123.480,142.544 124.701,141.631 125.314 C 139.145 126.983,139.200 127.290,139.200 111.776 L 139.200 97.600 125.600 97.600 L 112.000 97.600 111.997 121.300 L 111.994 145.000 103.995 150.200 C 99.595 153.060,95.591 155.705,95.098 156.078 C 94.604 156.450,93.300 157.350,92.200 158.078 L 90.200 159.400 90.088 175.168 C 90.026 183.840,90.120 191.080,90.296 191.256 C 90.639 191.599,92.786 190.225,118.200 173.394 C 127.220 167.420,139.010 159.630,144.400 156.083 C 149.790 152.536,156.360 148.179,159.000 146.400 C 163.353 143.468,171.441 138.122,185.200 129.084 C 187.950 127.278,190.380 125.655,190.600 125.478 C 191.643 124.638,197.767 120.800,198.063 120.800 C 198.249 120.800,198.400 120.623,198.400 120.408 C 198.400 118.693,200.576 119.614,207.487 124.254 C 211.374 126.864,214.881 129.180,215.280 129.400 C 215.679 129.620,217.219 130.634,218.703 131.653 C 220.186 132.673,225.450 136.168,230.400 139.420 C 247.347 150.555,279.000 171.548,279.483 171.974 C 279.749 172.208,280.051 172.400,280.156 172.400 C 280.260 172.400,282.562 173.891,285.273 175.713 C 287.983 177.535,291.100 179.588,292.200 180.275 C 293.300 180.962,296.332 182.981,298.937 184.762 C 301.542 186.543,303.723 188.000,303.784 188.000 C 303.844 188.000,305.103 188.811,306.582 189.802 C 308.060 190.793,309.421 191.511,309.606 191.396 C 309.792 191.281,309.911 184.046,309.872 175.318 L 309.800 159.449 302.400 154.508 C 298.330 151.791,294.683 149.305,294.295 148.984 C 293.908 148.663,293.492 148.400,293.372 148.400 C 293.251 148.400,289.414 145.925,284.846 142.900 C 280.278 139.875,276.266 137.220,275.930 137.000 C 273.658 135.508,261.404 127.349,257.672 124.841 C 255.181 123.169,252.841 121.620,252.472 121.400 C 252.102 121.180,251.710 120.902,251.600 120.782 C 251.439 120.606,246.147 117.181,243.286 115.400 C 242.933 115.180,242.454 114.854,242.222 114.676 C 241.409 114.051,208.633 92.400,208.500 92.400 C 208.427 92.400,208.149 92.210,207.883 91.978 C 207.270 91.442,200.735 87.176,200.200 86.962 C 199.980 86.875,198.900 87.416,197.800 88.165 M133.873 174.007 C 131.274 175.763,128.994 177.200,128.807 177.200 C 128.620 177.200,128.407 177.353,128.333 177.539 C 128.260 177.726,126.940 178.665,125.400 179.627 C 123.860 180.588,122.362 181.606,122.071 181.888 C 121.781 182.169,121.286 182.400,120.971 182.400 C 120.657 182.400,120.400 182.543,120.400 182.717 C 120.400 182.892,119.504 183.567,118.408 184.217 C 117.312 184.868,116.412 185.535,116.408 185.700 C 116.404 185.865,116.229 186.000,116.020 186.000 C 115.811 186.000,114.820 186.553,113.818 187.230 L 111.996 188.459 112.098 226.530 L 112.200 264.600 125.600 264.600 L 139.000 264.600 139.102 217.700 C 139.158 191.905,139.068 170.803,138.902 170.807 C 138.736 170.811,136.473 172.251,133.873 174.007 M260.800 217.805 L 260.800 264.811 274.300 264.705 L 287.800 264.600 287.902 226.483 L 288.004 188.365 286.805 187.683 C 286.145 187.307,285.604 186.865,285.603 186.700 C 285.601 186.535,285.389 186.400,285.131 186.400 C 284.874 186.400,284.378 186.142,284.031 185.828 C 283.683 185.513,282.949 185.015,282.399 184.722 C 281.188 184.075,271.881 177.906,271.600 177.564 C 271.490 177.430,271.220 177.248,271.000 177.160 C 270.780 177.072,268.502 175.605,265.938 173.900 C 263.374 172.195,261.169 170.800,261.038 170.800 C 260.907 170.800,260.800 191.952,260.800 217.805 M236.800 322.392 C 229.872 323.678,228.013 337.237,234.352 340.246 C 241.532 343.653,247.012 340.017,246.983 331.863 C 246.955 324.102,243.732 321.105,236.800 322.392 M210.800 331.553 C 210.800 341.721,210.681 341.314,213.522 340.897 L 214.800 340.709 214.800 337.404 C 214.800 333.271,214.947 333.128,219.062 333.282 L 222.200 333.400 222.314 337.053 L 222.429 340.706 223.653 340.951 C 224.327 341.085,225.314 341.086,225.846 340.953 L 226.815 340.710 226.707 331.655 L 226.600 322.600 224.600 322.600 L 222.600 322.600 222.484 326.115 L 222.368 329.630 218.684 329.515 L 215.000 329.400 214.884 325.900 L 214.769 322.400 212.784 322.400 L 210.800 322.400 210.800 331.553 M251.200 331.553 C 251.200 341.728,251.079 341.314,253.940 340.894 L 255.235 340.704 255.173 335.916 C 255.087 329.262,255.383 329.152,258.418 334.700 C 259.744 337.125,263.200 335.946,263.200 333.069 C 263.200 332.402,264.865 330.393,265.231 330.619 C 265.434 330.744,265.600 333.066,265.600 335.777 C 265.600 341.209,265.643 341.293,268.200 340.816 L 269.400 340.592 269.400 331.596 L 269.400 322.600 267.734 322.479 C 265.927 322.347,264.988 323.320,262.985 327.400 C 262.553 328.280,262.110 329.090,261.999 329.200 C 261.889 329.310,261.541 329.899,261.227 330.509 C 260.509 331.901,260.058 331.754,258.979 329.773 C 258.507 328.908,257.464 327.058,256.661 325.662 C 255.857 324.265,255.200 322.960,255.200 322.762 C 255.200 322.563,254.300 322.400,253.200 322.400 L 251.200 322.400 251.200 331.553 M274.267 322.667 C 274.120 322.813,274.000 326.953,274.000 331.867 L 274.000 340.800 281.000 340.800 L 288.000 340.800 288.000 339.400 L 288.000 338.000 283.449 338.000 C 278.241 338.000,277.951 337.846,278.101 335.161 L 278.200 333.400 282.496 333.287 C 286.722 333.175,286.796 333.157,287.046 332.157 C 287.427 330.643,286.966 330.453,282.660 330.351 C 278.345 330.250,278.409 330.290,278.282 327.565 L 278.200 325.800 282.800 325.600 L 287.400 325.400 287.524 323.900 L 287.648 322.400 281.091 322.400 C 277.484 322.400,274.413 322.520,274.267 322.667 M240.526 325.647 C 243.194 327.011,243.981 334.719,241.678 336.925 C 238.239 340.220,235.200 337.622,235.200 331.387 C 235.200 326.223,237.277 323.985,240.526 325.647 " stroke="none" fill="#3f687a" fill-rule="evenodd"></path><path id="path1" d="M0.000 200.000 L 0.000 400.000 200.000 400.000 L 400.000 400.000 400.000 200.000 L 400.000 0.000 200.000 0.000 L 0.000 0.000 0.000 200.000 M200.854 86.501 C 201.374 86.777,206.829 90.332,212.975 94.401 C 219.122 98.471,228.842 104.895,234.575 108.678 C 240.309 112.461,246.350 116.479,248.000 117.606 C 250.877 119.571,268.164 131.009,292.400 146.983 C 308.746 157.756,310.400 158.895,310.396 159.372 C 310.394 159.607,310.419 167.139,310.453 176.110 C 310.486 185.080,310.395 192.538,310.251 192.683 C 310.106 192.827,309.175 192.373,308.182 191.673 C 307.189 190.973,306.202 190.400,305.988 190.400 C 305.775 190.400,305.600 190.220,305.600 190.000 C 305.600 189.780,305.443 189.600,305.252 189.600 C 305.061 189.600,300.606 186.749,295.352 183.264 C 272.430 168.059,254.483 156.188,247.800 151.812 C 243.840 149.219,240.540 146.941,240.467 146.749 C 240.393 146.557,240.175 146.400,239.982 146.400 C 239.788 146.400,230.799 140.550,220.006 133.400 C 209.213 126.250,200.199 120.400,199.975 120.400 C 199.750 120.400,196.044 122.740,191.739 125.600 C 187.434 128.460,183.767 130.800,183.589 130.800 C 183.412 130.800,183.207 130.935,183.133 131.100 C 183.060 131.265,180.660 132.950,177.800 134.845 C 173.153 137.925,153.774 150.741,136.200 162.359 C 132.680 164.685,129.491 166.772,129.114 166.995 C 128.736 167.218,126.126 168.949,123.314 170.841 C 114.871 176.523,90.626 192.589,90.254 192.749 C 89.300 193.158,88.560 163.026,89.443 159.736 C 89.598 159.157,93.119 156.584,100.087 151.958 C 105.813 148.156,110.746 144.797,111.049 144.494 C 111.504 144.038,111.600 139.856,111.600 120.371 L 111.600 96.800 125.800 96.800 L 140.000 96.800 140.000 111.043 C 140.000 122.669,140.097 125.248,140.528 125.083 C 140.818 124.972,144.013 122.912,147.628 120.506 C 151.242 118.100,159.780 112.437,166.600 107.921 C 173.420 103.405,183.317 96.850,188.594 93.355 C 193.870 89.860,198.550 86.793,198.994 86.539 C 199.437 86.286,199.824 86.061,199.854 86.039 C 199.884 86.018,200.334 86.226,200.854 86.501 M139.902 217.822 L 139.800 265.400 125.800 265.400 L 111.800 265.400 111.706 226.600 L 111.612 187.800 122.813 180.400 C 128.974 176.330,134.327 172.820,134.707 172.600 C 135.088 172.380,135.490 172.106,135.600 171.991 C 136.621 170.923,139.301 169.600,139.702 169.967 C 139.868 170.119,139.958 191.654,139.902 217.822 M274.744 178.800 L 288.366 187.800 288.383 226.705 L 288.400 265.610 274.300 265.505 L 260.200 265.400 260.097 218.000 C 260.040 191.930,260.086 170.360,260.197 170.067 C 260.479 169.327,259.677 168.845,274.744 178.800 M185.650 177.250 L 187.200 178.800 187.210 220.100 C 187.216 247.071,187.363 262.025,187.633 263.200 C 190.116 274.006,204.167 276.918,210.247 267.886 C 212.638 264.335,212.547 265.346,212.698 240.546 L 212.836 217.691 214.152 216.169 C 216.776 213.134,221.890 213.907,223.814 217.628 C 224.678 219.298,224.681 261.013,223.818 265.116 C 219.695 284.715,196.107 291.810,182.565 277.525 C 175.401 269.968,175.601 271.583,175.600 221.180 L 175.600 179.760 176.679 178.096 C 178.781 174.854,182.868 174.468,185.650 177.250 M204.622 200.420 C 206.347 202.041,206.395 202.926,206.397 232.800 C 206.399 259.241,206.346 261.504,205.699 262.772 C 203.643 266.804,198.034 266.938,195.607 263.011 C 194.817 261.733,194.800 261.093,194.800 232.313 L 194.800 202.920 195.996 201.269 C 197.102 199.742,197.588 199.465,199.800 199.099 C 201.290 198.852,203.638 199.496,204.622 200.420 M164.298 226.615 C 168.054 228.184,168.033 228.080,168.010 245.365 C 167.982 266.742,169.002 272.165,174.408 279.383 C 190.376 300.705,222.618 294.751,230.640 269.000 C 231.309 266.852,231.409 264.689,231.594 248.400 C 231.738 235.681,231.940 229.959,232.263 229.400 C 234.441 225.639,239.947 225.290,242.288 228.765 L 243.200 230.118 243.200 247.882 C 243.200 264.237,243.135 265.960,242.380 269.603 C 239.997 281.102,232.732 291.613,223.200 297.351 C 222.210 297.947,221.130 298.605,220.800 298.813 C 219.443 299.668,214.855 301.570,212.800 302.128 C 211.590 302.456,209.880 302.936,209.000 303.193 C 206.107 304.040,196.234 304.183,192.400 303.434 C 175.977 300.226,162.776 288.469,158.452 273.200 C 158.234 272.430,157.828 271.080,157.550 270.200 C 156.571 267.104,156.591 230.504,157.572 228.918 C 159.074 226.493,161.784 225.565,164.298 226.615 M124.200 322.356 C 126.383 323.364,127.661 324.848,127.737 326.465 L 127.800 327.800 125.482 327.920 C 123.482 328.024,122.998 327.901,121.951 327.020 C 120.652 325.927,119.612 325.751,118.374 326.414 C 116.805 327.254,118.029 328.838,120.600 329.297 C 127.741 330.570,130.853 334.719,127.800 338.894 C 124.088 343.971,111.600 342.296,111.600 336.722 L 111.600 335.200 113.842 335.200 C 115.650 335.200,116.315 335.394,117.273 336.200 C 119.249 337.863,122.800 337.467,122.800 335.584 C 122.800 334.915,122.309 334.715,117.220 333.312 C 110.751 331.527,109.960 323.090,116.149 321.876 C 118.540 321.407,122.678 321.654,124.200 322.356 M135.710 322.100 C 136.386 322.609,138.875 326.906,139.651 328.900 C 140.134 330.143,141.093 330.351,141.488 329.300 C 141.633 328.915,142.322 327.700,143.020 326.600 C 143.718 325.500,144.408 324.219,144.555 323.753 C 145.052 322.167,146.165 321.543,148.258 321.676 L 150.200 321.800 150.307 331.700 L 150.414 341.600 149.507 341.646 C 149.008 341.671,148.069 341.753,147.420 341.828 C 145.426 342.058,145.200 341.538,145.200 336.727 C 145.200 332.088,145.058 331.834,143.820 334.267 C 141.764 338.306,139.613 338.393,137.814 334.508 C 136.252 331.138,136.000 331.447,136.000 336.733 L 136.000 341.512 134.500 341.691 C 133.675 341.789,132.550 341.751,132.000 341.606 L 131.000 341.343 130.893 332.021 C 130.817 325.482,130.921 322.536,131.241 322.150 C 131.813 321.462,134.819 321.428,135.710 322.100 M165.222 322.226 C 165.508 322.571,166.322 324.506,167.032 326.526 C 167.742 328.547,168.984 332.000,169.792 334.200 C 172.680 342.063,172.575 342.354,167.097 341.640 C 166.930 341.618,166.505 340.880,166.153 340.000 L 165.513 338.400 162.153 338.400 L 158.794 338.400 158.153 340.000 C 157.801 340.880,157.398 341.622,157.257 341.649 C 152.532 342.551,151.732 341.747,153.230 337.600 C 153.906 335.730,154.733 333.390,155.069 332.400 C 155.405 331.410,155.918 330.060,156.208 329.400 C 156.499 328.740,157.142 326.968,157.636 325.462 C 158.130 323.956,158.787 322.471,159.096 322.162 C 159.909 321.348,164.533 321.397,165.222 322.226 M186.776 322.559 C 190.688 324.664,191.470 329.791,188.355 332.907 C 187.042 334.220,186.943 333.757,189.532 338.408 C 190.993 341.033,190.790 341.609,188.308 341.889 C 185.794 342.172,185.092 341.642,183.152 338.001 C 181.640 335.165,181.318 334.800,180.323 334.800 L 179.200 334.800 179.200 337.951 C 179.200 340.040,179.026 341.247,178.683 341.531 C 178.188 341.942,174.680 341.820,173.947 341.367 C 173.366 341.008,173.512 322.650,174.100 322.049 C 174.927 321.204,185.013 321.610,186.776 322.559 M207.800 324.200 L 207.800 326.600 205.300 326.719 L 202.800 326.838 202.800 333.688 C 202.800 341.717,202.689 342.000,199.552 342.000 C 196.898 342.000,196.800 341.703,196.800 333.626 L 196.800 326.800 194.243 326.800 C 191.433 326.800,191.200 326.601,191.200 324.200 C 191.200 321.468,190.843 321.572,199.746 321.692 L 207.800 321.800 207.800 324.200 M215.600 325.400 L 215.800 329.000 218.885 329.117 L 221.970 329.233 222.085 325.517 L 222.200 321.800 224.436 321.682 C 227.711 321.509,227.632 321.241,227.507 332.050 L 227.400 341.400 224.800 341.400 L 222.200 341.400 222.085 337.683 L 221.970 333.967 218.885 334.083 L 215.800 334.200 215.600 337.785 L 215.400 341.370 214.153 341.624 C 212.411 341.978,210.402 341.621,210.392 340.955 C 210.291 333.948,210.431 322.274,210.619 321.969 C 210.758 321.745,211.890 321.616,213.135 321.681 L 215.400 321.800 215.600 325.400 M242.511 322.024 C 249.575 323.986,250.253 337.870,243.440 341.042 C 239.848 342.715,234.542 342.067,232.297 339.682 C 227.948 335.062,230.028 322.918,235.347 321.876 C 237.085 321.536,241.046 321.617,242.511 322.024 M255.282 322.100 C 255.631 322.375,256.809 324.279,257.900 326.331 C 258.991 328.383,260.044 330.074,260.239 330.088 C 260.610 330.115,262.246 327.518,263.851 324.354 C 265.117 321.859,265.607 321.533,267.869 321.677 L 269.800 321.800 269.907 331.719 L 270.014 341.639 267.507 341.519 L 265.000 341.400 264.887 336.885 C 264.766 332.058,264.563 331.785,263.196 334.609 C 262.323 336.412,261.531 337.077,260.400 336.956 C 260.070 336.921,259.516 336.872,259.168 336.846 C 258.821 336.821,258.113 335.894,257.594 334.787 C 255.864 331.094,255.600 331.349,255.600 336.709 L 255.600 341.516 254.100 341.658 C 251.766 341.879,250.903 341.634,250.646 340.678 C 250.251 339.202,250.374 323.720,250.790 322.626 C 251.232 321.464,254.055 321.134,255.282 322.100 M288.200 324.000 L 288.200 326.200 283.500 326.313 L 278.800 326.425 278.800 327.813 C 278.800 329.364,278.528 329.279,283.400 329.253 C 287.462 329.232,287.600 329.309,287.600 331.584 C 287.600 333.953,287.501 334.000,282.543 334.000 L 278.752 334.000 278.876 335.500 L 279.000 337.000 283.720 337.113 L 288.441 337.226 288.320 339.313 L 288.200 341.400 281.000 341.400 L 273.800 341.400 273.692 332.008 C 273.633 326.843,273.674 322.384,273.783 322.099 C 273.938 321.697,275.565 321.606,281.091 321.691 L 288.200 321.800 288.200 324.000 M236.982 326.982 C 235.618 328.346,235.488 335.088,236.800 336.400 C 238.994 338.594,241.791 336.984,242.013 333.400 C 242.334 328.204,241.437 326.000,239.000 326.000 C 238.430 326.000,237.522 326.442,236.982 326.982 M179.277 328.279 L 179.400 330.200 181.126 330.243 C 185.391 330.349,185.723 326.701,181.469 326.479 L 179.154 326.359 179.277 328.279 M161.090 330.716 C 160.189 333.751,160.131 333.600,162.200 333.600 C 164.255 333.600,164.213 333.710,163.255 330.822 C 162.302 327.950,161.917 327.931,161.090 330.716 " stroke="none" fill="#fbfbfb" fill-rule="evenodd"></path><path id="path2" d="M178.893 176.469 C 178.394 176.722,177.584 177.575,177.093 178.364 L 176.200 179.800 176.200 222.200 C 176.200 269.995,175.984 266.522,179.321 272.483 C 188.129 288.219,211.916 288.292,220.596 272.608 C 223.794 266.832,223.748 267.243,223.910 242.543 C 224.007 227.690,223.914 219.967,223.626 218.897 C 222.691 215.425,219.403 213.736,216.363 215.165 C 213.046 216.725,213.201 215.517,213.190 239.862 C 213.184 252.900,213.021 262.091,212.777 263.152 C 210.291 273.932,197.773 277.391,190.409 269.334 C 186.577 265.141,186.800 268.150,186.800 220.552 L 186.800 179.188 185.466 177.733 C 183.993 176.126,180.787 175.509,178.893 176.469 M199.048 199.610 C 197.419 200.103,196.065 201.502,195.602 203.170 C 194.742 206.264,195.094 261.221,195.982 262.678 C 198.171 266.267,203.029 266.267,205.218 262.678 C 206.434 260.683,206.434 204.117,205.218 202.122 C 203.873 199.916,201.383 198.902,199.048 199.610 M159.783 227.521 C 157.059 229.236,157.142 228.590,157.183 247.759 C 157.218 264.359,157.375 267.363,158.407 271.248 C 163.620 290.871,179.815 303.386,200.000 303.390 C 206.571 303.391,207.242 303.298,213.000 301.595 C 224.967 298.054,236.280 287.210,240.328 275.400 C 242.602 268.769,242.530 269.557,242.695 249.195 L 242.848 230.189 241.504 228.634 C 239.010 225.749,234.666 226.296,232.691 229.743 C 232.332 230.369,232.140 235.507,231.976 248.800 C 231.729 268.970,231.731 268.952,228.623 275.260 C 218.338 296.135,188.754 298.836,174.518 280.200 C 168.642 272.507,168.000 269.370,168.000 248.331 C 168.000 237.359,167.851 231.412,167.553 230.446 C 166.614 227.405,162.456 225.839,159.783 227.521 M117.465 322.093 C 110.258 323.606,110.556 330.840,117.914 333.011 C 122.950 334.497,123.200 334.629,123.200 335.812 C 123.200 338.089,119.161 338.448,116.780 336.383 C 115.615 335.372,112.496 335.285,112.125 336.252 C 110.217 341.223,123.720 343.422,127.204 338.709 C 130.115 334.772,127.325 330.942,120.697 329.774 C 119.030 329.481,117.200 328.238,117.200 327.400 C 117.200 325.502,120.425 324.999,122.327 326.600 C 124.661 328.564,128.367 327.781,127.186 325.573 C 125.678 322.756,121.475 321.252,117.465 322.093 M131.371 322.531 C 131.268 322.799,131.233 327.064,131.292 332.009 L 131.400 341.000 133.448 341.119 C 135.960 341.265,135.987 341.201,135.995 335.020 C 136.000 330.240,136.053 330.209,138.011 333.800 C 140.188 337.792,141.441 337.747,143.627 333.600 C 145.369 330.296,145.386 330.316,145.600 335.836 L 145.800 341.000 147.879 341.120 L 149.957 341.240 150.079 332.120 C 150.211 322.152,150.180 322.000,148.013 322.000 C 146.202 322.000,145.906 322.314,143.201 327.100 C 142.051 329.135,140.952 330.800,140.760 330.800 C 140.292 330.800,137.316 325.862,135.742 322.475 C 135.548 322.057,131.534 322.108,131.371 322.531 M159.676 322.344 C 159.179 322.660,157.849 326.013,154.359 335.752 C 152.364 341.321,152.355 341.200,154.777 341.200 C 156.865 341.200,158.000 340.318,158.000 338.697 C 158.000 338.037,158.364 337.982,162.048 338.086 L 166.097 338.200 166.548 339.600 C 166.974 340.919,167.113 341.007,168.956 341.124 C 171.817 341.306,171.826 341.157,169.376 334.376 C 165.522 323.708,165.144 322.798,164.389 322.394 C 163.497 321.917,160.403 321.884,159.676 322.344 M174.492 322.306 C 174.102 322.576,174.009 324.769,174.092 331.828 L 174.200 341.000 176.400 341.000 L 178.600 341.000 178.800 337.800 L 179.000 334.600 180.200 334.496 C 181.764 334.360,181.979 334.555,183.394 337.400 C 185.192 341.015,185.409 341.200,187.862 341.200 C 190.446 341.200,190.457 341.126,188.400 337.400 C 186.567 334.079,186.484 333.590,187.633 332.872 C 190.822 330.881,190.247 324.964,186.687 323.137 C 184.864 322.201,175.561 321.567,174.492 322.306 M192.300 322.271 C 191.446 322.500,191.262 325.971,192.100 326.043 C 192.375 326.066,192.870 326.125,193.200 326.174 C 193.530 326.223,194.565 326.294,195.500 326.332 L 197.200 326.400 197.200 333.167 C 197.200 341.469,197.112 341.200,199.834 341.200 L 201.982 341.200 202.091 333.900 L 202.200 326.600 203.200 326.495 C 203.750 326.437,204.974 326.289,205.921 326.167 L 207.642 325.945 207.521 324.072 L 207.400 322.200 200.200 322.142 C 196.240 322.110,192.685 322.168,192.300 322.271 M184.267 326.624 C 185.839 328.774,184.185 330.900,181.080 330.720 L 179.000 330.600 178.877 328.669 C 178.708 326.021,179.248 325.464,181.752 325.705 C 183.043 325.829,183.920 326.149,184.267 326.624 M163.521 330.328 C 164.732 334.088,164.769 334.000,162.000 334.000 C 159.225 334.000,159.308 334.201,160.600 330.640 C 161.150 329.123,161.600 327.819,161.600 327.741 C 161.600 326.561,162.850 328.245,163.521 330.328 " stroke="none" fill="#28b3e7" fill-rule="evenodd"></path><path id="path3" d="M188.797 93.529 C 155.791 115.540,140.279 125.639,139.962 125.322 C 139.769 125.129,139.563 118.677,139.505 110.985 L 139.400 97.000 125.600 97.000 L 111.800 97.000 111.697 120.863 L 111.594 144.726 109.497 146.108 C 108.344 146.868,104.745 149.227,101.500 151.351 C 98.255 153.476,95.600 155.309,95.600 155.427 C 95.600 155.725,95.808 155.596,104.356 150.000 L 111.994 145.000 111.997 121.300 L 112.000 97.600 125.600 97.600 L 139.200 97.600 139.200 111.776 C 139.200 127.290,139.145 126.983,141.631 125.314 C 142.544 124.701,144.426 123.480,145.813 122.600 C 149.237 120.427,171.295 105.741,171.818 105.285 C 172.048 105.085,172.415 104.849,172.633 104.761 C 172.851 104.672,177.522 101.614,183.014 97.965 C 188.506 94.315,194.573 90.300,196.496 89.042 L 199.993 86.754 203.696 89.155 C 205.733 90.476,207.617 91.746,207.883 91.978 C 208.149 92.210,208.427 92.400,208.500 92.400 C 208.673 92.400,241.665 114.235,242.218 114.715 C 242.448 114.915,242.808 115.152,243.018 115.240 C 243.228 115.329,244.930 116.403,246.800 117.627 C 250.998 120.375,251.200 120.495,251.200 120.248 C 251.200 120.138,249.445 118.893,247.300 117.481 C 245.155 116.069,233.720 108.498,221.888 100.657 C 210.057 92.816,200.157 86.413,199.888 86.429 C 199.620 86.446,194.629 89.641,188.797 93.529 M198.900 119.865 C 198.625 119.976,198.400 120.238,198.400 120.447 C 198.400 120.671,198.733 120.650,199.208 120.396 C 199.653 120.158,200.238 120.093,200.508 120.251 C 201.513 120.841,211.444 127.369,226.400 137.272 C 234.870 142.881,249.360 152.463,258.600 158.567 C 267.840 164.670,276.288 170.277,277.373 171.026 C 278.457 171.775,279.447 172.276,279.573 172.139 C 279.698 172.002,279.620 171.824,279.400 171.743 C 279.180 171.661,270.090 165.686,259.200 158.464 C 248.310 151.242,235.350 142.672,230.400 139.420 C 225.450 136.168,220.186 132.673,218.703 131.653 C 217.219 130.634,215.679 129.620,215.280 129.400 C 214.881 129.180,211.405 126.885,207.555 124.300 C 200.883 119.820,200.059 119.397,198.900 119.865 M251.600 120.682 C 251.600 120.862,251.951 121.188,252.380 121.405 C 252.809 121.622,256.004 123.702,259.480 126.026 C 266.767 130.898,266.800 130.919,266.800 130.629 C 266.800 130.509,263.605 128.282,259.700 125.679 C 251.295 120.077,251.600 120.266,251.600 120.682 M194.200 123.023 C 192.440 124.194,190.816 125.298,190.590 125.476 C 190.088 125.874,186.239 128.423,173.800 136.596 C 161.941 144.388,156.897 147.783,155.600 148.848 C 153.800 150.326,155.598 149.172,172.400 138.065 C 197.223 121.656,198.000 121.137,198.000 120.962 C 198.000 120.589,197.232 121.005,194.200 123.023 M267.200 130.952 C 267.200 131.110,271.724 134.244,275.929 137.000 C 276.265 137.220,280.302 139.891,284.900 142.936 C 289.499 145.981,293.340 148.393,293.438 148.296 C 293.648 148.085,293.656 148.091,279.400 138.720 C 266.609 130.313,267.200 130.689,267.200 130.952 M294.019 148.691 C 294.030 148.861,297.585 151.348,301.919 154.219 L 309.800 159.437 309.872 175.313 C 309.911 184.044,309.792 191.281,309.606 191.396 C 309.421 191.511,308.060 190.793,306.582 189.802 C 305.103 188.811,303.844 188.000,303.784 188.000 C 303.723 188.000,301.542 186.543,298.937 184.762 C 296.332 182.981,293.300 180.962,292.200 180.275 C 291.100 179.588,287.972 177.528,285.249 175.697 C 282.526 173.866,280.221 172.446,280.126 172.541 C 280.031 172.635,282.799 174.599,286.277 176.904 C 304.238 188.809,309.750 192.400,310.060 192.400 C 310.247 192.400,310.400 184.938,310.400 175.819 L 310.400 159.237 306.300 156.547 C 304.045 155.068,300.355 152.625,298.100 151.120 C 295.845 149.614,294.009 148.521,294.019 148.691 M144.373 156.066 C 138.998 159.623,127.220 167.420,118.200 173.394 C 92.786 190.225,90.639 191.599,90.296 191.256 C 90.120 191.080,90.026 183.840,90.088 175.168 L 90.200 159.400 92.195 158.067 C 93.293 157.333,94.461 156.582,94.792 156.397 C 95.123 156.211,95.292 155.959,95.168 155.835 C 95.044 155.711,93.741 156.439,92.271 157.454 L 89.600 159.298 89.600 175.849 C 89.600 186.482,89.741 192.400,89.995 192.400 C 90.213 192.400,93.048 190.626,96.295 188.458 C 103.178 183.864,141.834 158.241,149.300 153.325 C 153.746 150.397,154.811 149.600,154.273 149.600 C 154.203 149.600,149.748 152.510,144.373 156.066 M130.132 175.920 C 120.842 182.080,120.397 182.400,121.105 182.400 C 121.346 182.400,121.781 182.169,122.071 181.888 C 122.362 181.606,123.860 180.588,125.400 179.627 C 126.940 178.665,128.260 177.726,128.333 177.539 C 128.407 177.353,128.618 177.200,128.803 177.200 C 128.988 177.200,131.283 175.760,133.903 174.000 C 136.523 172.240,138.787 170.800,138.935 170.800 C 139.082 170.800,139.158 191.905,139.102 217.700 L 139.000 264.600 125.600 264.600 L 112.200 264.600 112.098 226.530 L 111.996 188.459 113.818 187.230 C 114.820 186.553,115.811 186.000,116.020 186.000 C 116.229 186.000,116.404 185.865,116.408 185.700 C 116.412 185.535,117.312 184.868,118.408 184.217 C 119.504 183.567,120.400 182.884,120.400 182.699 C 120.400 182.514,118.465 183.676,116.100 185.282 L 111.800 188.200 111.800 226.600 L 111.800 265.000 125.700 265.105 L 139.600 265.210 139.600 217.605 C 139.600 191.422,139.465 170.009,139.300 170.020 C 139.135 170.031,135.010 172.686,130.132 175.920 M260.333 170.400 C 260.260 170.620,260.246 192.042,260.303 218.005 L 260.407 265.210 274.303 265.105 L 288.200 265.000 288.200 226.651 L 288.200 188.303 286.900 187.300 C 286.185 186.749,285.601 186.456,285.603 186.649 C 285.604 186.842,286.145 187.307,286.805 187.683 L 288.004 188.365 287.902 226.483 L 287.800 264.600 274.300 264.705 L 260.800 264.811 260.800 217.805 C 260.800 191.952,260.915 170.800,261.055 170.800 C 261.195 170.800,263.476 172.240,266.122 174.000 C 268.768 175.760,271.007 177.126,271.097 177.036 C 271.248 176.885,261.012 170.000,260.636 170.000 C 260.543 170.000,260.407 170.180,260.333 170.400 M271.621 177.454 C 271.638 177.733,278.708 182.551,281.520 184.199 C 281.894 184.418,282.797 185.022,283.526 185.539 C 284.256 186.057,284.932 186.402,285.029 186.305 C 285.125 186.208,282.639 184.421,279.502 182.334 C 271.503 177.012,271.598 177.070,271.621 177.454 M236.000 322.070 C 233.458 322.792,230.761 325.503,230.816 327.280 C 230.825 327.566,231.166 327.130,231.575 326.312 C 233.110 323.240,235.003 322.269,239.398 322.300 C 241.460 322.315,242.315 322.204,241.800 321.990 C 240.721 321.540,237.718 321.582,236.000 322.070 M210.667 322.267 C 210.520 322.413,210.400 326.711,210.400 331.817 L 210.400 341.100 211.600 341.340 C 214.879 341.996,215.586 341.170,215.595 336.671 L 215.600 333.941 219.001 334.071 C 221.146 334.152,222.353 334.052,222.269 333.800 C 222.073 333.211,216.046 333.064,215.362 333.631 C 214.962 333.963,214.800 335.052,214.800 337.404 L 214.800 340.709 213.522 340.897 C 210.681 341.314,210.800 341.721,210.800 331.553 L 210.800 322.400 212.784 322.400 L 214.769 322.400 214.884 325.900 L 215.000 329.400 218.700 329.515 C 222.039 329.619,222.397 329.560,222.368 328.915 C 222.350 328.496,222.253 328.407,222.135 328.700 C 221.998 329.041,220.926 329.200,218.767 329.200 L 215.600 329.200 215.553 326.500 C 215.527 325.015,215.533 323.646,215.567 323.458 C 215.773 322.306,211.634 321.300,210.667 322.267 M222.399 322.280 C 222.399 322.456,223.344 322.600,224.499 322.600 L 226.600 322.600 226.707 331.669 C 226.807 340.059,226.762 340.752,226.107 340.923 C 225.570 341.063,225.618 341.118,226.307 341.154 L 227.214 341.200 227.107 331.700 L 227.000 322.200 224.700 322.080 C 223.435 322.014,222.400 322.104,222.399 322.280 M251.085 322.249 C 250.928 322.405,250.800 326.712,250.800 331.820 L 250.800 341.107 251.813 341.300 C 252.369 341.407,253.404 341.376,254.113 341.232 L 255.400 340.969 255.600 335.985 L 255.800 331.000 256.700 332.523 C 257.195 333.360,257.600 334.143,257.600 334.261 C 257.600 334.380,257.979 335.009,258.443 335.660 C 259.883 337.683,261.493 337.178,263.069 334.210 C 264.972 330.626,265.200 330.852,265.200 336.320 L 265.200 341.107 266.213 341.300 C 266.769 341.407,267.804 341.375,268.513 341.231 L 269.800 340.967 269.800 331.584 L 269.800 322.200 267.612 322.200 L 265.423 322.200 263.134 326.200 C 261.875 328.400,260.758 330.380,260.652 330.600 C 260.546 330.820,260.083 330.550,259.624 330.000 C 258.938 329.178,258.837 329.142,259.057 329.800 C 259.728 331.808,260.440 332.037,261.232 330.500 C 261.544 329.895,261.889 329.310,261.999 329.200 C 262.110 329.090,262.553 328.280,262.985 327.400 C 264.988 323.320,265.927 322.347,267.734 322.479 L 269.400 322.600 269.400 331.596 L 269.400 340.592 268.200 340.816 C 265.643 341.293,265.600 341.209,265.600 335.777 C 265.600 333.066,265.434 330.744,265.231 330.619 C 264.865 330.393,263.200 332.402,263.200 333.069 C 263.200 335.946,259.744 337.125,258.418 334.700 C 255.383 329.152,255.087 329.262,255.173 335.916 L 255.235 340.704 253.940 340.894 C 251.079 341.314,251.200 341.728,251.200 331.553 L 251.200 322.400 253.100 322.407 L 255.000 322.413 256.162 324.759 C 256.802 326.049,257.674 327.531,258.102 328.053 C 258.529 328.574,258.075 327.470,257.093 325.600 L 255.308 322.200 253.339 322.082 C 252.255 322.017,251.241 322.092,251.085 322.249 M273.797 322.891 C 273.674 323.391,273.625 327.662,273.687 332.382 C 273.821 342.552,272.830 341.489,281.910 341.200 L 288.200 341.000 288.327 339.674 C 288.543 337.431,288.041 337.200,282.951 337.200 L 278.400 337.200 278.346 336.100 C 278.297 335.124,278.271 335.104,278.115 335.922 C 277.774 337.705,278.531 338.000,283.449 338.000 L 288.000 338.000 288.000 339.400 L 288.000 340.800 280.992 340.800 L 273.985 340.800 274.092 331.700 L 274.200 322.600 280.925 322.490 L 287.649 322.380 287.525 323.890 L 287.400 325.400 282.800 325.600 L 278.200 325.800 278.122 327.000 C 278.049 328.117,278.064 328.131,278.338 327.200 C 278.626 326.225,278.748 326.195,283.217 326.000 L 287.800 325.800 287.800 324.000 L 287.800 322.200 280.910 322.091 C 274.035 321.981,274.019 321.983,273.797 322.891 M243.800 323.373 C 244.460 323.922,245.096 324.378,245.214 324.386 C 246.304 324.459,246.966 327.259,246.983 331.863 C 247.002 337.320,246.293 338.919,243.164 340.481 C 242.414 340.855,242.070 341.170,242.400 341.179 C 248.755 341.367,249.650 324.768,243.400 322.646 C 242.842 322.456,242.963 322.676,243.800 323.373 M236.442 326.360 C 234.420 328.249,234.641 335.857,236.765 337.487 C 237.945 338.393,240.445 338.107,241.678 336.925 C 243.097 335.566,243.388 328.547,242.091 326.947 C 240.440 324.908,238.241 324.680,236.442 326.360 M241.500 327.022 C 243.247 329.007,242.573 336.587,240.582 337.352 C 237.174 338.659,235.800 337.065,235.800 331.802 C 235.800 325.852,238.487 323.598,241.500 327.022 M230.546 331.800 C 230.547 334.000,230.614 334.849,230.695 333.687 C 230.776 332.524,230.776 330.724,230.693 329.687 C 230.611 328.649,230.545 329.600,230.546 331.800 M278.532 329.800 C 278.606 330.020,280.451 330.258,282.633 330.328 C 286.981 330.469,287.424 330.653,287.046 332.157 C 286.796 333.157,286.722 333.175,282.501 333.287 C 278.561 333.391,278.200 333.466,278.090 334.200 C 277.981 334.931,278.008 334.940,278.405 334.300 C 278.769 333.714,279.450 333.600,282.587 333.600 C 284.648 333.600,286.619 333.491,286.967 333.357 C 287.739 333.061,287.830 330.689,287.093 330.078 C 286.424 329.522,278.351 329.260,278.532 329.800 M230.810 336.441 C 230.770 339.080,234.213 341.304,238.556 341.442 L 241.800 341.545 238.774 341.226 C 234.704 340.798,233.161 340.006,231.867 337.682 C 231.291 336.647,230.815 336.088,230.810 336.441 " stroke="none" fill="#858585" fill-rule="evenodd"></path><path id="path4" d="M193.295 90.211 C 192.143 90.986,191.200 91.708,191.200 91.815 C 191.200 91.921,192.190 91.351,193.400 90.547 C 195.322 89.271,195.887 88.800,195.495 88.800 C 195.437 88.800,194.447 89.435,193.295 90.211 M205.600 89.724 C 205.600 89.817,206.365 90.398,207.300 91.015 C 208.235 91.632,208.789 91.880,208.531 91.568 C 208.034 90.967,205.600 89.436,205.600 89.724 M209.400 92.288 C 209.799 92.692,216.463 97.161,217.600 97.787 C 219.099 98.612,217.120 97.122,213.800 94.925 C 209.764 92.254,208.792 91.672,209.400 92.288 M187.295 94.211 C 186.143 94.986,185.200 95.708,185.200 95.815 C 185.200 95.921,186.190 95.351,187.400 94.547 C 189.322 93.271,189.887 92.800,189.495 92.800 C 189.437 92.800,188.447 93.435,187.295 94.211 M139.510 110.890 C 139.619 124.741,139.778 126.387,140.900 125.256 C 141.301 124.852,141.261 124.805,140.700 125.019 C 140.041 125.270,140.000 124.442,140.000 111.043 C 140.000 103.209,139.865 96.800,139.700 96.800 C 139.535 96.800,139.450 103.140,139.510 110.890 M181.400 98.235 L 180.200 99.266 181.500 98.406 C 182.215 97.933,182.800 97.468,182.800 97.373 C 182.800 97.073,182.631 97.178,181.400 98.235 M178.500 99.996 C 177.785 100.432,177.200 100.875,177.200 100.981 C 177.200 101.086,177.830 100.801,178.600 100.347 C 179.370 99.893,180.000 99.449,180.000 99.360 C 180.000 99.105,179.874 99.158,178.500 99.996 M173.893 103.014 C 173.072 103.572,172.400 104.115,172.400 104.220 C 172.400 104.325,173.120 103.935,174.000 103.353 C 175.397 102.428,175.870 102.000,175.493 102.000 C 175.434 102.000,174.714 102.456,173.893 103.014 M166.597 107.851 C 162.946 110.272,160.840 111.846,162.400 110.987 C 163.324 110.479,170.151 105.938,170.580 105.547 C 171.520 104.689,170.300 105.395,166.597 107.851 M230.000 105.967 C 230.550 106.425,231.630 107.163,232.400 107.608 L 233.800 108.416 232.706 107.498 C 232.105 106.993,231.025 106.254,230.306 105.857 L 229.000 105.133 230.000 105.967 M234.200 108.689 C 234.827 109.326,243.200 114.842,243.200 114.618 C 243.200 114.508,241.355 113.186,239.100 111.681 C 234.610 108.684,233.569 108.048,234.200 108.689 M159.487 112.568 C 157.126 114.202,156.564 114.775,158.306 113.772 C 159.650 112.999,161.956 111.223,161.600 111.236 C 161.490 111.241,160.539 111.840,159.487 112.568 M244.374 115.533 C 244.909 115.963,245.899 116.619,246.574 116.991 L 247.800 117.667 246.800 116.821 C 246.250 116.355,245.260 115.699,244.600 115.363 L 243.400 114.752 244.374 115.533 M153.700 116.446 C 152.337 117.319,151.895 117.906,153.100 117.243 C 154.018 116.739,155.456 115.627,155.200 115.619 C 155.090 115.616,154.415 115.988,153.700 116.446 M148.641 119.791 C 146.273 121.474,145.779 121.968,147.400 121.030 C 148.706 120.274,151.124 118.405,150.799 118.402 C 150.688 118.401,149.717 119.026,148.641 119.791 M197.700 121.246 C 196.337 122.119,195.895 122.706,197.100 122.043 C 198.018 121.539,199.456 120.427,199.200 120.419 C 199.090 120.416,198.415 120.788,197.700 121.246 M255.200 122.524 C 255.200 122.617,255.965 123.198,256.900 123.815 C 257.835 124.432,258.389 124.680,258.131 124.368 C 257.634 123.767,255.200 122.236,255.200 122.524 M206.200 124.207 C 206.640 124.566,207.360 125.035,207.800 125.251 L 208.600 125.644 207.800 124.993 C 207.360 124.634,206.640 124.165,206.200 123.949 L 205.400 123.556 206.200 124.207 M189.087 126.968 C 186.726 128.602,186.164 129.175,187.906 128.172 C 189.250 127.399,191.556 125.623,191.200 125.636 C 191.090 125.641,190.139 126.240,189.087 126.968 M209.694 126.490 C 210.882 127.500,213.200 128.947,213.200 128.679 C 213.200 128.588,212.165 127.849,210.900 127.037 C 209.635 126.225,209.092 125.979,209.694 126.490 M260.000 125.724 C 260.000 125.817,260.765 126.398,261.700 127.015 C 262.635 127.632,263.189 127.880,262.931 127.568 C 262.434 126.967,260.000 125.436,260.000 125.724 M213.600 128.982 C 213.600 129.085,214.635 129.866,215.900 130.715 C 218.701 132.598,219.200 132.895,219.200 132.682 C 219.200 132.592,217.940 131.680,216.400 130.655 C 214.860 129.631,213.600 128.878,213.600 128.982 M265.600 129.585 C 266.150 130.046,266.960 130.610,267.400 130.838 C 267.946 131.122,267.882 130.987,267.200 130.415 C 266.650 129.954,265.840 129.390,265.400 129.162 C 264.854 128.878,264.918 129.013,265.600 129.585 M269.600 132.121 C 269.600 132.212,270.635 132.951,271.900 133.763 C 273.165 134.575,273.708 134.821,273.106 134.310 C 271.918 133.300,269.600 131.853,269.600 132.121 M219.869 133.232 C 220.366 133.833,222.800 135.364,222.800 135.076 C 222.800 134.983,222.035 134.402,221.100 133.785 C 220.165 133.168,219.611 132.920,219.869 133.232 M275.000 135.807 C 275.440 136.166,276.160 136.635,276.600 136.851 L 277.400 137.244 276.600 136.593 C 276.160 136.234,275.440 135.765,275.000 135.549 L 274.200 135.156 275.000 135.807 M171.931 138.322 C 169.809 139.705,168.236 140.963,169.600 140.187 C 171.285 139.228,174.400 137.152,174.400 136.988 C 174.400 136.713,174.398 136.714,171.931 138.322 M225.600 136.924 C 225.600 137.017,226.365 137.598,227.300 138.215 C 228.235 138.832,228.789 139.080,228.531 138.768 C 228.034 138.167,225.600 136.636,225.600 136.924 M230.600 140.289 C 231.227 140.926,239.600 146.442,239.600 146.218 C 239.600 146.108,237.755 144.786,235.500 143.281 C 231.010 140.284,229.969 139.648,230.600 140.289 M283.200 141.185 C 283.750 141.646,284.560 142.210,285.000 142.438 C 285.546 142.722,285.482 142.587,284.800 142.015 C 284.250 141.554,283.440 140.990,283.000 140.762 C 282.454 140.478,282.518 140.613,283.200 141.185 M166.200 142.235 L 165.000 143.266 166.300 142.406 C 167.015 141.933,167.600 141.468,167.600 141.373 C 167.600 141.073,167.431 141.178,166.200 142.235 M162.993 144.256 C 160.952 145.609,160.232 146.323,161.826 145.414 C 163.230 144.614,165.101 143.222,164.793 143.209 C 164.679 143.204,163.869 143.675,162.993 144.256 M111.142 144.298 C 111.064 144.490,110.145 145.230,109.100 145.943 C 106.938 147.417,106.545 147.969,108.500 146.786 C 110.559 145.540,111.810 144.476,111.536 144.202 C 111.397 144.064,111.220 144.107,111.142 144.298 M289.000 145.007 C 289.440 145.366,290.160 145.835,290.600 146.051 L 291.400 146.444 290.600 145.793 C 290.160 145.434,289.440 144.965,289.000 144.749 L 288.200 144.356 289.000 145.007 M158.881 146.972 C 157.023 148.285,156.762 148.661,158.331 147.762 C 159.063 147.343,159.850 146.775,160.080 146.500 C 160.671 145.793,160.393 145.902,158.881 146.972 M242.804 148.533 C 246.329 150.887,247.879 151.829,247.400 151.328 C 246.793 150.692,240.881 146.800,240.522 146.800 C 240.350 146.800,241.377 147.580,242.804 148.533 M105.300 148.446 C 103.937 149.319,103.495 149.906,104.700 149.243 C 105.618 148.739,107.056 147.627,106.800 147.619 C 106.690 147.616,106.015 147.988,105.300 148.446 M293.200 147.721 C 293.200 147.812,294.235 148.551,295.500 149.363 C 296.765 150.175,297.308 150.421,296.706 149.910 C 295.518 148.900,293.200 147.453,293.200 147.721 M153.893 150.214 C 153.072 150.772,152.400 151.315,152.400 151.420 C 152.400 151.525,153.120 151.135,154.000 150.553 C 155.397 149.628,155.870 149.200,155.493 149.200 C 155.434 149.200,154.714 149.656,153.893 150.214 M102.200 150.635 L 101.000 151.666 102.300 150.806 C 103.015 150.333,103.600 149.868,103.600 149.773 C 103.600 149.473,103.431 149.578,102.200 150.635 M298.200 151.072 C 298.420 151.302,299.950 152.384,301.600 153.475 C 305.294 155.918,305.600 156.099,305.600 155.843 C 305.600 155.731,304.295 154.795,302.700 153.763 C 298.549 151.078,297.748 150.599,298.200 151.072 M249.375 152.759 C 249.497 152.957,250.239 153.498,251.023 153.960 C 251.807 154.423,252.348 154.639,252.225 154.441 C 252.103 154.243,251.361 153.702,250.577 153.240 C 249.793 152.777,249.252 152.561,249.375 152.759 M144.198 156.650 C 139.546 159.738,137.080 161.536,138.800 160.586 C 139.741 160.067,148.956 153.937,149.380 153.548 C 150.363 152.648,148.985 153.472,144.198 156.650 M256.000 156.946 C 256.000 157.056,256.540 157.530,257.200 158.000 C 257.860 158.470,258.400 158.764,258.400 158.654 C 258.400 158.544,257.860 158.070,257.200 157.600 C 256.540 157.130,256.000 156.836,256.000 156.946 M259.574 159.524 C 260.109 159.959,261.099 160.619,261.774 160.991 L 263.000 161.667 262.026 160.876 C 261.491 160.441,260.501 159.781,259.826 159.409 L 258.600 158.733 259.574 159.524 M89.382 176.000 C 89.382 184.910,89.435 188.555,89.500 184.100 C 89.564 179.645,89.564 172.355,89.500 167.900 C 89.435 163.445,89.382 167.090,89.382 176.000 M135.887 162.168 C 133.526 163.802,132.964 164.375,134.706 163.372 C 136.050 162.599,138.356 160.823,138.000 160.836 C 137.890 160.841,136.939 161.440,135.887 162.168 M263.200 161.776 C 263.200 161.886,264.505 162.849,266.100 163.917 C 269.399 166.126,270.401 166.720,269.800 166.113 C 269.169 165.476,263.200 161.553,263.200 161.776 M124.900 169.417 C 123.745 170.174,122.800 170.877,122.800 170.980 C 122.800 171.233,126.791 168.739,127.045 168.327 C 127.348 167.837,127.181 167.922,124.900 169.417 M274.295 169.270 C 274.869 169.957,277.399 171.446,277.060 170.898 C 276.919 170.668,276.139 170.089,275.327 169.610 C 274.516 169.131,274.051 168.978,274.295 169.270 M139.503 217.430 L 139.606 265.220 125.623 265.110 C 117.932 265.050,111.777 265.137,111.945 265.305 C 112.113 265.473,118.449 265.563,126.025 265.505 L 139.800 265.400 139.902 217.822 C 139.958 191.654,139.868 170.108,139.702 169.942 C 139.536 169.776,139.446 191.145,139.503 217.430 M260.267 169.867 C 260.120 170.013,260.003 170.328,260.006 170.567 C 260.009 170.805,260.169 170.752,260.361 170.450 C 260.641 170.008,261.053 170.134,262.455 171.091 C 265.286 173.023,267.600 174.425,267.600 174.207 C 267.600 174.023,260.931 169.600,260.653 169.600 C 260.587 169.600,260.413 169.720,260.267 169.867 M137.295 170.782 C 136.797 171.197,136.167 171.616,135.895 171.714 C 135.623 171.811,135.491 171.991,135.603 172.115 C 135.714 172.238,136.511 171.813,137.374 171.169 C 138.237 170.526,138.775 170.006,138.571 170.013 C 138.367 170.021,137.793 170.366,137.295 170.782 M260.198 218.300 L 260.200 265.400 274.300 265.505 C 282.055 265.563,288.400 265.473,288.400 265.305 C 288.400 265.137,282.101 265.050,274.402 265.110 L 260.403 265.220 260.299 218.210 L 260.195 171.200 260.198 218.300 M118.900 173.433 C 117.745 174.214,116.800 174.924,116.800 175.012 C 116.800 175.232,119.173 173.779,120.400 172.809 C 121.985 171.555,121.193 171.885,118.900 173.433 M278.800 172.124 C 278.800 172.217,279.565 172.798,280.500 173.415 C 281.435 174.032,281.989 174.280,281.731 173.968 C 281.234 173.367,278.800 171.836,278.800 172.124 M133.400 173.450 C 132.740 174.012,132.560 174.288,133.000 174.065 C 134.196 173.458,135.457 172.425,135.000 172.427 C 134.780 172.428,134.060 172.888,133.400 173.450 M114.900 176.046 C 113.537 176.919,113.095 177.506,114.300 176.843 C 115.218 176.339,116.656 175.227,116.400 175.219 C 116.290 175.216,115.615 175.588,114.900 176.046 M129.093 176.214 C 128.272 176.772,127.600 177.315,127.600 177.420 C 127.600 177.525,128.320 177.135,129.200 176.553 C 130.597 175.628,131.070 175.200,130.693 175.200 C 130.634 175.200,129.914 175.656,129.093 176.214 M180.600 175.516 C 178.782 175.809,177.700 176.521,176.679 178.096 L 175.600 179.760 175.640 221.580 C 175.662 244.581,175.797 263.816,175.940 264.324 C 176.083 264.833,176.200 246.023,176.200 222.524 L 176.200 179.800 177.104 178.347 C 178.906 175.448,183.101 175.152,185.486 177.755 L 186.800 179.188 186.800 220.552 C 186.800 260.943,186.819 261.977,187.609 264.536 C 189.403 270.344,195.903 274.681,201.243 273.633 C 202.943 273.299,202.909 273.286,200.200 273.244 C 193.873 273.144,189.028 269.272,187.633 263.200 C 187.363 262.025,187.216 247.071,187.210 220.100 L 187.200 178.800 185.650 177.250 C 184.131 175.731,182.575 175.197,180.600 175.516 M269.469 175.632 C 269.966 176.233,272.400 177.764,272.400 177.476 C 272.400 177.383,271.635 176.802,270.700 176.185 C 269.765 175.568,269.211 175.320,269.469 175.632 M283.600 175.324 C 283.600 175.417,284.365 175.998,285.300 176.615 C 286.235 177.232,286.789 177.480,286.531 177.168 C 286.034 176.567,283.600 175.036,283.600 175.324 M111.087 178.568 C 108.726 180.202,108.164 180.775,109.906 179.772 C 111.250 178.999,113.556 177.223,113.200 177.236 C 113.090 177.241,112.139 177.840,111.087 178.568 M105.087 182.568 C 102.726 184.202,102.164 184.775,103.906 183.772 C 105.250 182.999,107.556 181.223,107.200 181.236 C 107.090 181.241,106.139 181.840,105.087 182.568 M292.800 181.379 C 292.800 181.489,294.375 182.632,296.300 183.918 C 300.195 186.521,301.217 187.138,300.600 186.512 C 299.971 185.875,292.800 181.156,292.800 181.379 M116.309 184.702 C 113.729 186.406,111.614 187.920,111.609 188.067 C 111.601 188.304,120.023 182.798,120.980 181.941 C 121.959 181.063,120.626 181.851,116.309 184.702 M278.800 181.721 C 278.800 181.812,279.835 182.551,281.100 183.363 C 282.365 184.175,282.908 184.421,282.306 183.910 C 281.118 182.900,278.800 181.453,278.800 181.721 M285.000 185.849 C 285.928 186.766,288.400 188.415,288.400 188.117 C 288.400 187.938,287.995 187.542,287.500 187.235 C 285.027 185.704,284.631 185.484,285.000 185.849 M94.954 189.268 C 93.329 190.491,92.863 190.973,93.800 190.460 C 94.840 189.891,96.672 188.420,96.354 188.409 C 96.219 188.404,95.589 188.791,94.954 189.268 M197.322 199.800 C 194.670 201.657,194.800 199.972,194.800 232.400 C 194.800 261.093,194.817 261.733,195.607 263.011 C 198.034 266.938,203.643 266.804,205.699 262.772 C 206.349 261.498,206.392 259.330,206.305 232.400 L 206.210 203.400 206.005 232.618 C 205.815 259.653,205.747 261.916,205.094 262.912 C 202.889 266.277,198.102 266.154,195.982 262.678 C 195.094 261.221,194.742 206.264,195.602 203.170 C 196.066 201.500,197.421 200.101,199.048 199.614 C 200.172 199.277,200.176 199.268,199.189 199.234 C 198.633 199.215,197.793 199.470,197.322 199.800 M202.126 199.607 C 203.548 200.034,204.338 200.686,205.263 202.200 C 205.812 203.098,205.997 203.214,205.999 202.660 C 206.001 201.453,203.458 199.195,202.140 199.234 L 201.000 199.269 202.126 199.607 M215.742 214.797 C 215.270 214.987,214.424 215.747,213.861 216.485 L 212.837 217.827 212.698 240.613 C 212.547 265.338,212.637 264.336,210.247 267.886 C 208.945 269.821,207.164 271.279,204.712 272.418 C 203.440 273.009,203.291 273.156,204.133 272.991 C 206.771 272.472,210.269 269.461,211.612 266.552 C 213.083 263.365,213.180 261.727,213.190 239.862 C 213.201 215.657,213.070 216.737,216.183 215.225 C 217.771 214.454,217.425 214.118,215.742 214.797 M220.613 215.199 C 223.949 216.850,223.800 215.626,223.800 241.400 C 223.800 267.001,223.821 266.800,220.599 272.608 C 213.322 285.729,194.080 288.422,183.464 277.807 C 183.099 277.442,182.800 277.302,182.800 277.497 C 182.800 277.923,184.546 279.562,186.200 280.689 C 200.833 290.658,220.125 282.672,223.818 265.116 C 224.681 261.013,224.678 219.298,223.814 217.628 C 223.028 216.107,220.941 214.400,219.869 214.400 C 219.225 214.401,219.418 214.607,220.613 215.199 M159.883 226.836 C 157.716 227.980,156.786 229.699,156.875 232.400 L 156.948 234.600 157.097 232.429 C 157.519 226.300,165.512 224.595,167.549 230.200 L 167.985 231.400 167.761 230.200 C 167.161 226.980,162.988 225.197,159.883 226.836 M234.967 226.788 C 233.881 227.227,232.000 229.475,232.001 230.331 C 232.002 230.757,232.276 230.552,232.756 229.765 C 234.916 226.224,238.968 225.700,241.504 228.634 L 242.848 230.189 242.695 249.195 C 242.530 269.557,242.602 268.769,240.328 275.400 C 236.280 287.210,224.967 298.054,213.000 301.595 C 207.134 303.330,206.612 303.400,199.486 303.400 C 194.753 303.400,192.879 303.511,193.886 303.733 C 195.915 304.179,206.991 303.785,209.000 303.195 C 209.880 302.937,211.590 302.456,212.800 302.128 C 214.855 301.570,219.443 299.668,220.800 298.813 C 221.130 298.605,222.210 297.947,223.200 297.351 C 232.732 291.613,239.997 281.102,242.380 269.603 C 243.135 265.960,243.200 264.237,243.200 247.882 L 243.200 230.118 242.288 228.765 C 240.824 226.592,237.602 225.722,234.967 226.788 M231.575 249.000 C 231.390 264.662,231.274 267.227,230.681 268.750 C 230.306 269.713,230.016 270.793,230.036 271.150 C 230.057 271.508,230.448 270.720,230.906 269.400 C 231.727 267.037,232.368 244.566,231.917 234.000 C 231.846 232.350,231.693 239.100,231.575 249.000 M156.995 252.000 C 157.036 264.253,157.185 269.019,157.563 270.200 C 157.844 271.080,158.332 272.700,158.647 273.800 C 159.239 275.867,159.983 277.374,159.994 276.526 C 159.997 276.265,159.799 275.545,159.552 274.926 C 157.595 270.000,157.484 268.913,157.206 251.800 L 156.939 235.400 156.995 252.000 M168.090 263.400 C 168.084 264.500,168.224 265.850,168.400 266.400 C 168.856 267.823,168.869 265.722,168.420 263.200 L 168.100 261.400 168.090 263.400 M176.436 266.308 C 176.381 267.679,178.102 271.605,179.950 274.327 C 181.613 276.776,182.918 278.116,182.038 276.471 C 181.795 276.016,181.421 275.537,181.208 275.405 C 180.505 274.970,177.917 269.994,177.188 267.675 C 176.786 266.397,176.457 265.798,176.436 266.308 M169.029 269.000 C 169.811 274.259,175.049 282.114,180.512 286.221 C 196.695 298.386,220.000 292.927,228.783 274.914 C 229.479 273.485,229.967 272.233,229.866 272.132 C 229.765 272.031,229.211 272.977,228.636 274.233 C 216.860 299.956,179.519 297.645,169.926 270.600 C 169.129 268.354,168.862 267.877,169.029 269.000 M160.020 277.471 C 159.954 279.047,164.765 286.559,168.300 290.400 C 173.694 296.261,184.000 302.108,190.400 302.937 C 192.143 303.163,192.155 303.157,190.800 302.751 C 180.189 299.574,176.128 297.325,169.964 291.209 C 166.280 287.553,163.881 284.319,161.520 279.820 C 160.706 278.269,160.031 277.212,160.020 277.471 M116.149 321.876 C 110.081 323.066,110.736 331.461,117.040 333.300 C 120.610 334.341,121.072 334.084,117.600 332.989 C 110.559 330.767,110.469 323.552,117.465 322.097 C 118.801 321.819,119.029 321.697,118.200 321.702 C 117.540 321.706,116.617 321.784,116.149 321.876 M122.255 322.167 C 125.356 322.919,128.287 325.765,127.415 327.176 C 126.884 328.035,123.590 327.662,122.327 326.600 C 120.943 325.436,118.789 325.268,117.809 326.249 C 116.491 327.566,118.093 329.354,121.000 329.809 C 122.185 329.995,122.444 329.950,122.000 329.636 C 121.670 329.403,120.989 329.209,120.486 329.206 C 119.344 329.198,117.600 328.088,117.600 327.368 C 117.600 325.844,120.297 325.628,121.951 327.020 C 122.998 327.901,123.482 328.024,125.482 327.920 L 127.800 327.800 127.737 326.465 C 127.629 324.155,124.248 321.583,121.400 321.643 C 120.479 321.662,120.678 321.784,122.255 322.167 M131.241 322.150 C 130.921 322.536,130.817 325.482,130.893 332.021 L 131.000 341.343 132.000 341.606 C 133.921 342.112,136.005 341.611,135.954 340.656 C 135.915 339.951,135.874 339.927,135.720 340.520 C 135.566 341.117,135.181 341.219,133.467 341.120 L 131.400 341.000 131.400 331.600 L 131.400 322.200 133.522 322.255 C 134.689 322.285,135.679 322.375,135.722 322.455 C 135.765 322.535,136.414 323.770,137.165 325.200 C 140.674 331.886,140.523 331.838,143.201 327.100 C 146.135 321.908,148.000 320.641,149.970 322.500 C 150.398 322.904,150.465 322.884,150.319 322.400 C 149.783 320.625,145.198 321.701,144.555 323.753 C 144.408 324.219,143.718 325.500,143.020 326.600 C 142.322 327.700,141.633 328.915,141.488 329.300 C 141.093 330.351,140.134 330.143,139.651 328.900 C 137.277 322.794,133.334 319.629,131.241 322.150 M159.096 322.162 C 158.463 322.794,156.624 327.957,156.924 328.257 C 157.031 328.364,157.512 327.267,157.994 325.819 C 159.098 322.499,159.603 322.000,161.855 322.000 C 165.087 322.000,164.639 321.263,169.376 334.376 C 171.826 341.157,171.817 341.306,168.956 341.124 C 167.113 341.007,166.974 340.919,166.548 339.600 L 166.097 338.200 162.048 338.086 C 158.364 337.982,158.000 338.037,158.000 338.697 C 158.000 340.318,156.865 341.200,154.777 341.200 C 153.370 341.200,152.800 341.042,152.800 340.652 C 152.800 340.176,155.053 333.609,156.370 330.245 C 156.619 329.609,156.732 328.999,156.622 328.889 C 156.416 328.683,156.147 329.297,155.078 332.400 C 154.737 333.390,153.906 335.730,153.230 337.600 C 151.732 341.747,152.532 342.551,157.257 341.649 C 157.398 341.622,157.801 340.880,158.153 340.000 L 158.794 338.400 162.153 338.400 L 165.513 338.400 166.153 340.000 C 166.505 340.880,166.930 341.618,167.097 341.640 C 172.575 342.354,172.680 342.063,169.792 334.200 C 168.984 332.000,167.742 328.547,167.032 326.526 C 166.322 324.506,165.508 322.571,165.222 322.226 C 164.533 321.397,159.909 321.348,159.096 322.162 M174.100 322.049 C 173.512 322.650,173.366 341.008,173.947 341.367 C 174.680 341.820,178.188 341.942,178.683 341.531 C 179.026 341.247,179.200 340.040,179.200 337.951 L 179.200 334.800 180.323 334.800 C 181.318 334.800,181.640 335.165,183.152 338.001 C 185.092 341.642,185.794 342.172,188.308 341.889 C 190.790 341.609,190.993 341.033,189.532 338.408 C 186.943 333.757,187.042 334.220,188.355 332.907 C 191.470 329.791,190.688 324.664,186.776 322.559 C 185.013 321.610,174.927 321.204,174.100 322.049 M191.446 322.225 C 191.130 323.047,191.129 325.348,191.443 326.167 C 191.629 326.653,192.280 326.800,194.243 326.800 L 196.800 326.800 196.800 333.626 C 196.800 341.703,196.898 342.000,199.552 342.000 C 202.689 342.000,202.800 341.717,202.800 333.688 L 202.800 326.838 205.300 326.719 L 207.800 326.600 207.800 324.200 L 207.800 321.800 199.746 321.692 C 192.664 321.597,191.662 321.661,191.446 322.225 M210.383 322.282 C 209.918 322.895,209.920 322.927,210.399 322.500 C 210.708 322.225,211.788 322.000,212.800 322.000 C 213.812 322.000,214.879 322.225,215.170 322.500 C 215.598 322.904,215.665 322.884,215.518 322.400 C 215.229 321.445,211.090 321.350,210.383 322.282 M222.169 322.137 C 222.055 322.433,222.025 324.008,222.102 325.637 L 222.241 328.600 222.321 325.280 L 222.400 321.960 224.700 322.080 L 227.000 322.200 227.107 331.700 L 227.214 341.200 224.823 341.200 L 222.431 341.200 222.292 337.900 L 222.153 334.600 222.177 338.000 L 222.200 341.400 224.800 341.400 L 227.400 341.400 227.507 332.050 C 227.583 325.489,227.479 322.536,227.159 322.150 C 226.542 321.407,222.453 321.397,222.169 322.137 M251.052 321.916 C 250.944 322.090,251.518 322.170,252.328 322.093 C 254.802 321.859,255.093 321.695,253.124 321.646 C 252.092 321.621,251.159 321.742,251.052 321.916 M264.829 322.654 C 264.373 323.234,264.001 323.909,264.001 324.154 C 264.002 324.399,264.370 323.999,264.818 323.264 C 265.600 321.980,265.716 321.933,267.779 322.064 C 268.959 322.139,269.842 322.065,269.739 321.900 C 269.218 321.061,265.651 321.609,264.829 322.654 M273.876 321.858 C 273.724 322.009,273.603 322.328,273.606 322.567 C 273.610 322.817,273.749 322.784,273.936 322.490 C 274.182 322.102,275.881 322.006,281.030 322.090 L 287.800 322.200 287.800 324.000 L 287.800 325.800 283.200 326.000 L 278.600 326.200 278.600 327.800 C 278.600 329.180,278.725 329.407,279.506 329.453 C 280.260 329.497,280.277 329.476,279.606 329.325 C 278.992 329.187,278.800 328.821,278.800 327.785 L 278.800 326.425 283.500 326.313 L 288.200 326.200 288.200 324.000 L 288.200 321.800 281.176 321.691 C 277.312 321.631,274.027 321.706,273.876 321.858 M186.687 323.137 C 190.247 324.964,190.822 330.881,187.633 332.872 C 186.484 333.590,186.567 334.079,188.400 337.400 C 190.457 341.126,190.446 341.200,187.862 341.200 C 185.409 341.200,185.192 341.015,183.394 337.400 C 181.979 334.555,181.764 334.360,180.200 334.496 L 179.000 334.600 178.800 337.800 L 178.600 341.000 176.400 341.000 L 174.200 341.000 174.092 331.828 C 174.009 324.769,174.102 322.576,174.492 322.306 C 175.561 321.567,184.864 322.201,186.687 323.137 M207.521 324.072 L 207.642 325.945 205.921 326.167 C 204.974 326.289,203.750 326.437,203.200 326.495 L 202.200 326.600 202.091 333.900 L 201.982 341.200 199.834 341.200 C 197.112 341.200,197.200 341.469,197.200 333.167 L 197.200 326.400 195.500 326.332 C 194.565 326.294,193.530 326.223,193.200 326.174 C 192.870 326.125,192.375 326.066,192.100 326.043 C 191.262 325.971,191.446 322.500,192.300 322.271 C 192.685 322.168,196.240 322.110,200.200 322.142 L 207.400 322.200 207.521 324.072 M232.872 323.431 C 231.952 324.218,231.200 325.042,231.200 325.262 C 231.200 325.482,231.645 325.132,232.189 324.486 C 232.733 323.839,233.768 323.020,234.489 322.664 C 235.210 322.309,235.517 322.014,235.172 322.009 C 234.827 322.004,233.792 322.644,232.872 323.431 M255.800 323.200 C 256.141 323.860,256.511 324.400,256.621 324.400 C 256.731 324.400,256.541 323.860,256.200 323.200 C 255.859 322.540,255.489 322.000,255.379 322.000 C 255.269 322.000,255.459 322.540,255.800 323.200 M245.446 323.981 C 245.912 324.542,246.492 325.360,246.734 325.800 C 246.977 326.240,247.181 326.372,247.188 326.094 C 247.195 325.816,246.615 324.998,245.900 324.276 C 245.185 323.554,244.981 323.421,245.446 323.981 M250.570 331.800 C 250.571 336.640,250.629 338.565,250.699 336.078 C 250.769 333.591,250.769 329.631,250.698 327.278 C 250.628 324.925,250.570 326.960,250.570 331.800 M150.092 332.521 L 150.000 341.242 147.900 341.121 L 145.800 341.000 145.600 335.836 C 145.386 330.316,145.369 330.296,143.627 333.600 C 141.441 337.747,140.188 337.792,138.011 333.800 C 136.466 330.967,136.000 330.386,136.000 331.296 C 136.000 331.657,136.198 332.075,136.441 332.225 C 136.684 332.375,137.301 333.403,137.814 334.508 C 139.613 338.393,141.764 338.306,143.820 334.267 C 145.058 331.834,145.200 332.088,145.200 336.727 C 145.200 341.847,145.356 342.106,148.238 341.768 C 149.315 341.641,150.246 341.488,150.306 341.427 C 150.366 341.367,150.364 337.376,150.300 332.559 L 150.184 323.800 150.092 332.521 M179.261 326.126 C 178.960 326.489,178.804 327.522,178.877 328.669 L 179.000 330.600 181.080 330.720 C 184.185 330.900,185.839 328.774,184.267 326.624 C 183.535 325.623,179.973 325.268,179.261 326.126 M237.054 326.429 C 236.474 326.885,236.000 327.465,236.000 327.718 C 236.000 327.971,236.278 327.781,236.618 327.296 C 236.958 326.811,237.813 326.247,238.518 326.043 C 239.427 325.780,239.554 325.662,238.954 325.636 C 238.489 325.616,237.634 325.973,237.054 326.429 M240.840 326.752 C 241.516 327.299,241.839 328.089,242.028 329.652 L 242.287 331.800 242.344 329.954 C 242.400 328.116,241.320 326.000,240.327 326.000 C 240.098 326.000,240.329 326.338,240.840 326.752 M184.184 327.742 C 184.734 329.312,183.522 330.303,181.126 330.243 L 179.400 330.200 179.277 328.279 L 179.154 326.359 181.469 326.479 C 183.610 326.591,183.814 326.686,184.184 327.742 M258.400 328.000 C 258.849 328.880,259.306 329.600,259.416 329.600 C 259.526 329.600,259.249 328.880,258.800 328.000 C 258.351 327.120,257.894 326.400,257.784 326.400 C 257.674 326.400,257.951 327.120,258.400 328.000 M261.800 328.000 C 261.459 328.660,261.269 329.200,261.379 329.200 C 261.489 329.200,261.859 328.660,262.200 328.000 C 262.541 327.340,262.731 326.800,262.621 326.800 C 262.511 326.800,262.141 327.340,261.800 328.000 M161.600 327.741 C 161.600 327.819,161.150 329.123,160.600 330.640 C 159.308 334.201,159.225 334.000,162.000 334.000 C 164.769 334.000,164.732 334.088,163.521 330.328 C 162.850 328.245,161.600 326.561,161.600 327.741 M163.255 330.822 C 164.213 333.710,164.255 333.600,162.200 333.600 C 160.131 333.600,160.189 333.751,161.090 330.716 C 161.917 327.931,162.302 327.950,163.255 330.822 M230.142 331.800 C 230.141 333.780,230.208 334.640,230.292 333.712 C 230.376 332.784,230.377 331.164,230.295 330.112 C 230.212 329.060,230.143 329.820,230.142 331.800 M235.740 331.600 C 235.740 333.470,235.809 334.235,235.893 333.300 C 235.977 332.365,235.977 330.835,235.893 329.900 C 235.809 328.965,235.740 329.730,235.740 331.600 M247.742 331.800 C 247.741 333.780,247.808 334.640,247.892 333.712 C 247.976 332.784,247.977 331.164,247.895 330.112 C 247.812 329.060,247.743 329.820,247.742 331.800 M281.505 329.483 C 282.002 329.579,282.722 329.575,283.105 329.475 C 283.487 329.375,283.080 329.296,282.200 329.301 C 281.320 329.305,281.007 329.387,281.505 329.483 M285.400 329.495 C 286.060 329.592,286.825 329.857,287.100 330.084 C 287.434 330.360,287.600 330.363,287.600 330.092 C 287.600 329.550,286.580 329.186,285.267 329.260 C 284.248 329.317,284.254 329.328,285.400 329.495 M124.237 330.644 C 131.942 333.378,128.382 341.436,119.494 341.381 C 117.445 341.368,116.607 341.484,117.033 341.722 C 119.272 342.976,126.133 341.174,127.800 338.894 C 130.258 335.533,127.381 329.851,123.313 330.032 C 122.921 330.049,123.337 330.324,124.237 330.644 M263.949 332.500 C 263.517 333.310,263.534 333.346,264.121 332.862 C 264.716 332.371,264.783 332.721,264.887 336.862 C 264.992 341.080,265.056 341.403,265.800 341.439 C 266.409 341.469,266.433 341.439,265.900 341.311 C 265.282 341.164,265.200 340.587,265.200 336.372 C 265.200 331.611,264.906 330.703,263.949 332.500 M242.064 333.520 C 242.029 334.246,241.725 335.371,241.390 336.020 C 241.054 336.669,240.869 337.200,240.979 337.200 C 241.515 337.200,242.428 334.599,242.287 333.475 L 242.128 332.200 242.064 333.520 M282.800 333.578 L 278.600 333.800 278.477 335.500 C 278.409 336.435,278.504 337.200,278.688 337.200 C 278.871 337.200,278.952 336.480,278.869 335.600 L 278.716 334.000 282.658 333.994 C 284.826 333.991,286.870 333.813,287.200 333.600 C 287.530 333.387,287.620 333.245,287.400 333.284 C 287.180 333.324,285.110 333.456,282.800 333.578 M121.700 334.520 C 122.859 334.978,123.124 335.916,122.320 336.720 C 121.446 337.594,118.579 337.299,117.273 336.200 C 116.315 335.394,115.650 335.200,113.842 335.200 L 111.600 335.200 111.600 336.753 C 111.600 338.446,114.042 341.219,115.501 341.182 C 115.928 341.172,115.647 340.872,114.780 340.414 C 113.211 339.584,111.734 337.269,112.125 336.252 C 112.496 335.285,115.615 335.372,116.780 336.383 C 119.146 338.435,123.200 338.089,123.200 335.834 C 123.200 334.837,122.182 333.957,121.126 334.043 C 120.837 334.066,121.095 334.281,121.700 334.520 M258.073 335.800 C 258.323 336.350,258.684 336.800,258.873 336.800 C 259.063 336.800,258.924 336.350,258.563 335.800 C 258.203 335.250,257.843 334.800,257.763 334.800 C 257.683 334.800,257.822 335.250,258.073 335.800 M236.000 335.901 C 236.000 336.704,237.736 337.601,239.189 337.550 C 240.547 337.502,240.534 337.489,238.843 337.215 C 237.855 337.056,236.847 336.606,236.543 336.189 C 236.244 335.781,236.000 335.651,236.000 335.901 M245.904 338.844 C 245.301 339.700,244.887 340.400,244.983 340.400 C 245.269 340.400,247.326 337.592,247.156 337.433 C 247.070 337.354,246.507 337.988,245.904 338.844 M231.200 338.270 C 231.200 338.841,233.870 341.200,234.514 341.199 C 234.781 341.198,234.436 340.853,233.747 340.433 C 233.057 340.012,232.202 339.253,231.847 338.745 C 231.491 338.237,231.200 338.023,231.200 338.270 M215.200 340.506 C 215.200 340.857,214.795 341.222,214.300 341.318 L 213.400 341.491 214.313 341.546 C 215.192 341.598,215.962 340.629,215.449 340.116 C 215.312 339.979,215.200 340.154,215.200 340.506 M254.200 341.200 L 253.000 341.505 254.300 341.553 C 255.015 341.579,255.600 341.420,255.600 341.200 C 255.600 340.980,255.555 340.821,255.500 340.847 C 255.445 340.873,254.860 341.032,254.200 341.200 M268.600 341.200 L 267.400 341.505 268.700 341.553 C 269.415 341.579,270.000 341.420,270.000 341.200 C 270.000 340.980,269.955 340.821,269.900 340.847 C 269.845 340.873,269.260 341.032,268.600 341.200 M282.000 341.200 L 275.800 341.432 281.876 341.516 C 285.589 341.567,288.049 341.444,288.200 341.200 C 288.336 340.980,288.392 340.838,288.324 340.884 C 288.256 340.930,285.410 341.073,282.000 341.200 M235.915 341.672 C 236.292 341.821,237.680 341.944,239.000 341.944 C 240.320 341.944,241.708 341.821,242.085 341.672 C 242.462 341.522,241.074 341.400,239.000 341.400 C 236.926 341.400,235.538 341.522,235.915 341.672 " stroke="none" fill="#9cd0e2" fill-rule="evenodd"></path></g></svg>